:FULLY-SPECIFIED
:FORCE-ALL-JOINTS-BE-3DOF
:DEGREES
679
root 5.36493 16.1124 0.923099 15.6742 -23.2564 0.0839551
lfemur -37.0846 26.7312 -9.66582
ltibia 106.364 0 0
lfoot 20.4927 -19.5394 0
ltoes 11.9742 0 0
rfemur -38.4426 -11.5597 26.2282
rtibia 61.2471 0 0
rfoot -24.125 -6.10768 0
rtoes 0.443157 0 0
lowerback 0.96782 -6.65821 -0.0442231
upperback -1.87876 -8.8763 0.875508
thorax -2.32411 -4.42818 1.17569
lowerneck -9.3851 -3.68346 0.654266
upperneck 2.47344 -5.11282 2.2144
head 2.45217 -2.46879 0.34051
lclavicle 1.13875e-13 1.67547e-14 0
lhumerus 14.803 -61.6173 54.3399
lradius 91.7042 0 0
lwrist 29.77 0 0
lhand -14.3999 -1.23698 0
lfingers 7.12502 0 0
lthumb 11.7433 28.4112 0
rclavicle 1.13875e-13 1.67547e-14 0
rhumerus -46.0999 -9.31957 -44.0624
rradius 77.8201 0 0
rwrist -21.429 0 0
rhand -26.9856 -47.5649 0
rfingers 7.12502 0 0
rthumb -0.406184 -797.544 0
680
root 5.35757 16.1485 1.05149 15.4457 -24.6551 -0.0188455
lfemur -38.6408 26.5214 -7.68396
ltibia 110.835 0 0
lfoot 23.3716 -22.1735 0
ltoes 13.8335 0 0
rfemur -37.0493 -10.5986 25.6188
rtibia 60.2502 0 0
rfoot -24.182 -5.83958 0
rtoes 0.136471 0 0
lowerback 1.2829 -6.68443 0.0475016
upperback -1.8514 -8.91007 0.842014
thorax -2.48965 -4.4449 1.13259
lowerneck -9.24205 -3.56945 0.702065
upperneck 2.62229 -4.96469 2.15003
head 2.47081 -2.39551 0.320897
lclavicle 1.30303e-13 2.06736e-14 0
lhumerus 18.1137 -60.1086 49.3292
lradius 92.6218 0 0
lwrist 30.0796 0 0
lhand -14.8207 -1.41853 0
lfingers 7.12502 0 0
lthumb 11.3377 28.255 0
rclavicle 1.30303e-13 2.06736e-14 0
rhumerus -45.2935 -8.74488 -42.9472
rradius 79.7625 0 0
rwrist -21.6464 0 0
rhand -26.8969 -47.4337 0
rfingers 7.12502 0 0
rthumb -0.320506 -797.413 0
681
root 5.34616 16.2545 1.19219 15.1814 -26.0059 0.117709
lfemur -39.7564 26.1663 -4.56717
ltibia 113.644 0 0
lfoot 22.856 -21.6843 0
ltoes 14.7676 0 0
rfemur -35.2601 -10.0621 24.8684
rtibia 57.9185 0 0
rfoot -23.4868 -5.07533 0
rtoes 0.994889 0 0
lowerback 1.5062 -6.62106 -0.131967
upperback -1.82364 -8.839 0.617817
thorax -2.59504 -4.4066 1.02594
lowerneck -8.93099 -3.63553 0.631135
upperneck 2.78777 -5.05928 2.37661
head 2.48015 -2.4366 0.405526
lclavicle 1.08877e-13 1.89697e-14 0
lhumerus 20.2375 -57.5671 45.3967
lradius 92.2775 0 0
lwrist 30.3423 0 0
lhand -15.1899 -1.6223 0
lfingers 7.12502 0 0
lthumb 10.9815 28.0685 0
rclavicle 1.08877e-13 1.89697e-14 0
rhumerus -44.8413 -8.43574 -41.0061
rradius 82.0028 0 0
rwrist -20.7464 0 0
rhand -27.1273 -46.7909 0
rfingers 7.12502 0 0
rthumb -0.543051 -796.769 0
682
root 5.33475 16.3604 1.33288 14.9172 -27.3568 0.254263
lfemur -40.872 25.8113 -1.45037
ltibia 116.454 0 0
lfoot 22.3404 -21.1952 0
ltoes 15.7018 0 0
rfemur -33.4709 -9.52567 24.1181
rtibia 55.5868 0 0
rfoot -22.7917 -4.31108 0
rtoes 1.85331 0 0
lowerback 1.7295 -6.5577 -0.311436
upperback -1.79587 -8.76793 0.39362
thorax -2.70044 -4.3683 0.91928
lowerneck -8.61994 -3.70161 0.560205
upperneck 2.95326 -5.15386 2.6032
head 2.48949 -2.47769 0.490154
lclavicle 8.74508e-14 1.72659e-14 0
lhumerus 22.3614 -55.0255 41.4641
lradius 91.9331 0 0
lwrist 30.605 0 0
lhand -15.5592 -1.82607 0
lfingers 7.12502 0 0
lthumb 10.6253 27.8821 0
rclavicle 8.74508e-14 1.72659e-14 0
rhumerus -44.3891 -8.1266 -39.0651
rradius 84.2431 0 0
rwrist -19.8464 0 0
rhand -27.3577 -46.1481 0
rfingers 7.12502 0 0
rthumb -0.765596 -796.125 0
683
root 5.32334 16.4664 1.47358 14.6529 -28.7076 0.390818
lfemur -41.9876 25.4562 1.66642
ltibia 119.263 0 0
lfoot 21.8248 -20.706 0
ltoes 16.6359 0 0
rfemur -31.6817 -8.98921 23.3677
rtibia 53.2551 0 0
rfoot -22.0965 -3.54683 0
rtoes 2.71173 0 0
lowerback 1.9528 -6.49433 -0.490905
upperback -1.76811 -8.69686 0.169423
thorax -2.80583 -4.33 0.812625
lowerneck -8.30888 -3.76769 0.489275
upperneck 3.11874 -5.24845 2.82978
head 2.49883 -2.51878 0.574783
lclavicle 6.60247e-14 1.5562e-14 0
lhumerus 24.4852 -52.484 37.5316
lradius 91.5888 0 0
lwrist 30.8677 0 0
lhand -15.9284 -2.02984 0
lfingers 7.12502 0 0
lthumb 10.2691 27.6956 0
rclavicle 6.60247e-14 1.5562e-14 0
rhumerus -43.9369 -7.81746 -37.124
rradius 86.4834 0 0
rwrist -18.9464 0 0
rhand -27.5881 -45.5053 0
rfingers 7.12502 0 0
rthumb -0.988141 -795.481 0
684
root 5.31192 16.5723 1.61427 14.3887 -30.0585 0.527373
lfemur -43.1033 25.1011 4.78322
ltibia 122.072 0 0
lfoot 21.3093 -20.2169 0
ltoes 17.5701 0 0
rfemur -29.8926 -8.45274 22.6174
rtibia 50.9234 0 0
rfoot -21.4014 -2.78258 0
rtoes 3.57014 0 0
lowerback 2.1761 -6.43097 -0.670374
upperback -1.74034 -8.62578 -0.054774
thorax -2.91123 -4.29169 0.70597
lowerneck -7.99783 -3.83378 0.418345
upperneck 3.28423 -5.34303 3.05636
head 2.50816 -2.55987 0.659411
lclavicle 4.45986e-14 1.38581e-14 0
lhumerus 26.609 -49.9424 33.599
lradius 91.2445 0 0
lwrist 31.1305 0 0
lhand -16.2976 -2.23361 0
lfingers 7.12502 0 0
lthumb 9.91285 27.5092 0
rclavicle 4.45986e-14 1.38581e-14 0
rhumerus -43.4848 -7.50833 -35.183
rradius 88.7237 0 0
rwrist -18.0465 0 0
rhand -27.8186 -44.8625 0
rfingers 7.12502 0 0
rthumb -1.21069 -794.838 0
685
root 5.30051 16.6783 1.75497 14.1244 -31.4093 0.663927
lfemur -44.2189 24.746 7.90001
ltibia 124.881 0 0
lfoot 20.7937 -19.7277 0
ltoes 18.5042 0 0
rfemur -28.1034 -7.91628 21.867
rtibia 48.5917 0 0
rfoot -20.7062 -2.01833 0
rtoes 4.42856 0 0
lowerback 2.3994 -6.3676 -0.849842
upperback -1.71258 -8.55471 -0.278971
thorax -3.01662 -4.25339 0.599315
lowerneck -7.68677 -3.89986 0.347415
upperneck 3.44971 -5.43762 3.28294
head 2.5175 -2.60096 0.74404
lclavicle 2.31725e-14 1.21543e-14 0
lhumerus 28.7328 -47.4009 29.6665
lradius 90.9002 0 0
lwrist 31.3932 0 0
lhand -16.6668 -2.43738 0
lfingers 7.12502 0 0
lthumb 9.55664 27.3227 0
rclavicle 2.31725e-14 1.21543e-14 0
rhumerus -43.0326 -7.19919 -33.2419
rradius 90.964 0 0
rwrist -17.1465 0 0
rhand -28.049 -44.2197 0
rfingers 7.12502 0 0
rthumb -1.43323 -794.194 0
686
root 5.2891 16.7842 1.89566 13.8602 -32.7602 0.800481
lfemur -45.3345 24.391 11.0168
ltibia 127.691 0 0
lfoot 20.2781 -19.2386 0
ltoes 19.4384 0 0
rfemur -26.3142 -7.37981 21.1167
rtibia 46.26 0 0
rfoot -20.0111 -1.25408 0
rtoes 5.28698 0 0
lowerback 2.6227 -6.30424 -1.02931
upperback -1.68481 -8.48364 -0.503168
thorax -3.12202 -4.21509 0.49266
lowerneck -7.37572 -3.96594 0.276485
upperneck 3.6152 -5.5322 3.50953
head 2.52684 -2.64205 0.828668
lclavicle 1.7464e-15 1.04504e-14 0
lhumerus 30.8567 -44.8593 25.7339
lradius 90.5558 0 0
lwrist 31.6559 0 0
lhand -17.0361 -2.64115 0
lfingers 7.12502 0 0
lthumb 9.20043 27.1363 0
rclavicle 1.7464e-15 1.04504e-14 0
rhumerus -42.5804 -6.89005 -31.3009
rradius 93.2043 0 0
rwrist -16.2465 0 0
rhand -28.2794 -43.5769 0
rfingers 7.12502 0 0
rthumb -1.65578 -793.55 0
